<?xml version="1.0" encoding="utf-8"?>
<!-- Generator: Adobe Illustrator 18.1.0, SVG Export Plug-In . SVG Version: 6.00 Build 0)  -->
<svg version="1.1" id="Слой_1" xmlns="http://www.w3.org/2000/svg" xmlns:xlink="http://www.w3.org/1999/xlink" x="0px" y="0px"
	 viewBox="0 0 41.5 100" enable-background="new 0 0 41.5 100" xml:space="preserve">
<g>
	<path fill="#4D4E62" d="M20,88.8L20,88.8c-8.3,0-14.2-8-11.9-15.9L20,11.2l11.9,61.8C34.2,80.9,28.3,88.8,20,88.8z"/>
	<path opacity="0.35" fill="#626161" d="M28,74.6c1.1,5.8-3.9,10.7-9.6,9.6c-3.2-0.6-5.8-3.2-6.4-6.4c-1.1-5.8,3.9-10.7,9.6-9.6
		C24.8,68.8,27.4,71.4,28,74.6z"/>
	<path fill="#8CC8A4" d="M26.4,74.7c1.1,4.8-3.1,8.9-7.9,7.9c-2.4-0.5-4.3-2.5-4.9-4.9c-1.1-4.8,3.1-8.9,7.9-7.9
		C23.9,70.4,25.8,72.3,26.4,74.7z"/>
</g>
</svg>
